# xmcd
# 
# Track frame offsets:
#     150
#     13230
#     25015
#     34348
#     46012
#     59377
#     72475
#     82263
#     97608
#     114445
#     127903
#     150210
#     159988
#     172850
#     192515
#     205870
#     230838
#     246325
# 
# Disc length: 3595
# 
# Revision: 3
# Processed by: cddbd v1.5.2PL0 Copyright (c) Steve Scherf et al.
# Submitted via: fre:ac v1.0.17
# 
DISCID=e40e0912
DTITLE=Various Artist - The Blues Breakers [CD 1)
DYEAR=1998
DGENRE=Blues
TTITLE0=Muddy Waters - Mannish Boy
TTITLE1=John Lee Hooker - I'm In The Mood
TTITLE2=Canned Heat - Big Road Blues
TTITLE3=Little Walter - My Babe
TTITLE4=John Mayall - A Big Man
TTITLE5=Elmore James - Dust My Broom
TTITLE6=Eric Clapton and Jimmy Page - Tribute To Elmore
TTITLE7=Sonny Boy Williamson - Cross My Heart
TTITLE8=Johnny Winter - Kind Hearted Woman
TTITLE9=Lightnin' Hopkins - Mojo Hand
TTITLE10=Howlin' Wolf - Wang Dang Doodle
TTITLE11=John Lee Hooker - Dusty Road
TTITLE12=Muddy Waters - 40 Days And 40 Nights
TTITLE13=Townes Van Zandt - Pancho And Lefty
TTITLE14=Tony Joe White - You Got Me Running
TTITLE15=Ike and Tina Turner - All I Can Do Is Cry
TTITLE16=Big Joe Williams - Nobody Known You When You're Down And Out
TTITLE17=B B King - How Blue Can You Get
EXTD=YEAR: 1998
EXTT0=
EXTT1=
EXTT2=
EXTT3=
EXTT4=
EXTT5=
EXTT6=
EXTT7=
EXTT8=
EXTT9=
EXTT10=
EXTT11=
EXTT12=
EXTT13=
EXTT14=
EXTT15=
EXTT16=
EXTT17=
PLAYORDER=
